<svg width="720" height="220" viewBox="0 0 720 220" fill="none" xmlns="http://www.w3.org/2000/svg">
  <rect width="720" height="220" rx="18" fill="#171411"/>
  <g fill="#FBFAF7">
    <path d="M115 36L64 184H82L94 147H136L148 184H166L115 36ZM100 130L115 82L130 130H100Z"/>
    <path d="M70 91V184H88V91H70Z"/>
    <path d="M146 91H176C198 91 212 105 212 125C212 141 203 153 188 158L216 184H194L170 161H164V184H146V91ZM164 108V146H176C187 146 194 139 194 126C194 115 187 108 176 108H164Z"/>
    <path d="M305.9 150H285.7L281.3 163H267.4L288.2 105.4H304L324.8 163H310.3L305.9 150ZM289.3 139.2H302.3L295.8 120L289.3 139.2Z"/>
    <path d="M346.4 105.4H360.2V151.8H384V163H346.4V105.4Z"/>
    <path d="M432.8 164.1C415.5 164.1 402.8 151.8 402.8 134.2C402.8 116.7 415.5 104.3 432.8 104.3C450.1 104.3 462.8 116.7 462.8 134.2C462.8 151.8 450.1 164.1 432.8 164.1ZM432.8 151.8C442 151.8 448.4 144.8 448.4 134.2C448.4 123.8 442 116.6 432.8 116.6C423.6 116.6 417.2 123.8 417.2 134.2C417.2 144.8 423.6 151.8 432.8 151.8Z"/>
    <path d="M489.6 105.4H512.7C526.1 105.4 534.6 113 534.6 124.6C534.6 132.5 530.2 138.7 522.9 141.6L536.4 163H520.7L509 143.9H503.4V163H489.6V105.4ZM503.4 116.2V133.6H511.3C517.3 133.6 520.6 130.1 520.6 124.9C520.6 119.6 517.3 116.2 511.3 116.2H503.4Z"/>
    <path d="M592.6 150H572.4L568 163H554.1L574.9 105.4H590.7L611.5 163H597L592.6 150ZM576 139.2H589L582.5 120L576 139.2Z"/>
  </g>
  <path d="M268 78H612" stroke="#DBC3B4" stroke-width="1.5"/>
  <text x="440" y="88" text-anchor="middle" fill="#DBC3B4" font-family="Arial, Helvetica, sans-serif" font-size="12" letter-spacing="5">DISCOVERY PERFUME BOX</text>
</svg>
