<svg width="760" height="170" viewBox="0 0 760 170" fill="none" xmlns="http://www.w3.org/2000/svg">
  <rect width="760" height="170" fill="#FBFAF7"/>
  <g fill="#171411">
    <path d="M130 118H89L80 146H51L94 27H127L170 146H139L130 118ZM96 95H123L109.5 54L96 95Z"/>
    <path d="M216 27H245V122H294V146H216V27Z"/>
    <path d="M378 148C342 148 316 122 316 86C316 50 342 25 378 25C414 25 440 50 440 86C440 122 414 148 378 148ZM378 122C397 122 411 107 411 86C411 65 397 51 378 51C359 51 345 65 345 86C345 107 359 122 378 122Z"/>
    <path d="M493 27H541C569 27 586 43 586 67C586 83 577 96 562 102L590 146H557L533 107H522V146H493V27ZM522 50V86H538C551 86 558 79 558 68C558 57 551 50 538 50H522Z"/>
    <path d="M687 118H646L637 146H608L651 27H684L727 146H696L687 118ZM653 95H680L666.5 54L653 95Z"/>
  </g>
</svg>
